<?xml version="1.0" standalone="no"?>
<!DOCTYPE svg PUBLIC "-//W3C//DTD SVG 20010904//EN"
 "http://www.w3.org/TR/2001/REC-SVG-20010904/DTD/svg10.dtd">
<svg version="1.0" xmlns="http://www.w3.org/2000/svg"
 width="64.000000pt" height="64.000000pt" viewBox="0 0 64.000000 64.000000"
 preserveAspectRatio="xMidYMid meet">

<rect width="100%" height="100%" fill="#FFFFFF" />
<g transform="translate(0.000000,64.000000) scale(0.100000,-0.100000)" 
fill="#F55F44" stroke="none">
<path d="M0 320 l0 -320 320 0 320 0 0 320 0 320 -320 0 -320 0 0 -320z m380
151 c14 -27 13 -37 -6 -55 -12 -12 -38 -16 -115 -16 -110 0 -139 9 -139 43 0
41 17 47 137 47 101 0 113 -2 123 -19z m114 3 c20 -20 20 -33 -1 -56 -29 -32
-73 -16 -73 27 0 42 44 59 74 29z m-315 -114 c40 -21 31 -80 -12 -80 -44 0
-62 43 -31 74 18 19 20 19 43 6z m295 4 c26 -10 38 -41 26 -64 -10 -18 -21
-20 -130 -20 -109 0 -120 2 -130 20 -12 22 0 54 22 63 19 8 193 8 212 1z m-92
-149 c9 -21 8 -28 -7 -45 -16 -17 -31 -20 -117 -20 -109 0 -138 9 -138 43 0
41 17 47 137 47 111 0 114 0 125 -25z m112 9 c20 -20 20 -33 -1 -56 -29 -32
-73 -16 -73 27 0 42 44 59 74 29z"/>
</g>
</svg>
